<?xml version="1.0" encoding="utf-8"?>
<!-- Generator: Adobe Illustrator 17.1.0, SVG Export Plug-In . SVG Version: 6.00 Build 0)  -->
<!DOCTYPE svg PUBLIC "-//W3C//DTD SVG 1.1//EN" "http://www.w3.org/Graphics/SVG/1.1/DTD/svg11.dtd">
<svg version="1.1" id="logo" xmlns="http://www.w3.org/2000/svg" xmlns:xlink="http://www.w3.org/1999/xlink" x="0px" y="0px"
        width="203px" height="36px" viewBox="0 0 203 36" enable-background="new 0 0 203 36" xml:space="preserve">
<path fill="#FFFFFF" d="M73.2,22.85c-2.1,0-3.1-2.1-3.1-4.1h5.5l0.3-0.3c0-2.1-1-3.8-3.1-3.8c-2.7,0-4.5,2.7-4.5,5.1
        s1.4,4.8,4.1,4.8c1.7,0,3.1-1,3.8-2.4l-0.3-0.3C74.9,22.45,74.2,22.85,73.2,22.85z M72.1,15.65c0.7,0,1.4,1,1.4,1.7
        c0,0.7,0,0.7-1,0.7h-2.4C70.1,16.65,70.8,15.65,72.1,15.65z M86,23.25c-0.7,0-0.7-0.7-0.7-1.4v-4.4c0-1.7-1-2.7-2.7-2.7
        c-0.3,0-0.7,0-1.4,0.3c-0.7,0.3-1.7,0.7-2.4,1c-0.7,0.3-1,1-1,1.7c0,0.3,0,0.3,0.3,0.3s1.4-0.3,1.4-1c0-1,0.3-1.4,1.7-1.4
        c1,0,1.7,0.3,1.7,1.7v1.4l-2.4,1c-1.4,0.3-2.7,1-2.7,2.7c0,1.4,1,2.1,2.4,2.1c1.4,0,2.4-0.7,3.1-1.7c0,1,0.7,1.7,1.7,1.7
        s1.7-0.7,2.1-1.4l-0.3-0.3C86.4,22.95,86,23.25,86,23.25z M83,22.25c0,0.3-0.7,1-1.7,1s-1.4-0.3-1.4-1.4c0-1.7,2.1-2.1,3.1-2.1
        V22.25z M91.9,23.55h0.3v0.7c-0.7,0-1.7,0-2.4,0c-0.7,0-1.7,0-2.4,0v-1c0.7,0,1,0,1-0.7v-11.6c0-0.7-0.3-0.7-0.7-1
        c-0.3,0-0.3-0.3-0.7-0.3v-0.3c1,0,2.4-0.7,3.4-1l0.3,0.3v14.4C90.8,23.55,91.5,23.55,91.9,23.55z M64.4,9.85c1,0,2.1,0,3.1,0v0.7
        h-0.3c-0.7,0-1.4,0-1.4,1v11c0,1,0.7,1,1.4,1h0.3v0.7c-0.7,0-2.1,0-3.1,0c-1.4,0-2.4,0-3.4,0v-0.7h0.3c0.7,0,1.7,0,1.7-1v-5.1h-7.5
        v5.1c0,1,1,1,1.7,1h0.3v0.7c-1,0-2.4,0-3.4,0s-2.1,0-3.1,0v-1h0.3c0.7,0,1.4,0,1.4-1v-10.7c0-1-0.7-1-1.4-1H51v-0.7
        c0.7,0,2.1,0,3.1,0c1.4,0,2.4,0,3.4,0v0.7h-0.3c-0.7,0-1.7,0-1.7,1v4.5H63v-4.5c0-1-1-1-1.7-1H61v-0.7
        C61.7,9.85,63.1,9.85,64.4,9.85z M96.7,15.05h2.4v1h-2.4v5.8c0,0.7,0.3,1,1,1c0.7,0,1,0,1,0l0.3,0.3c-0.7,1-1.7,1.7-2.7,1.7
        c-1.7,0-2.1-1-2.1-2.1v-6.4h-1.4v-0.3c1.4-0.7,2.4-2.1,3.4-3.1h0.3v2.1H96.7z M181.4,21.85c0,2.4-1.7,3.1-3.4,3.1
        c-1,0-1.7-0.3-2.4-0.7l-0.3-2.4h0.7c0,1.4,0.7,2.4,2.1,2.4c1,0,1.7-0.3,1.7-1.4c0-2.1-4.1-1.7-4.1-4.8c0-2.1,1.7-3.1,3.4-3.1
        c1,0,1.7,0,2.4,0.3c0,0.7,0,1.4,0,2.1h-0.7c0-1-0.3-2.1-1.7-2.1c-0.7,0-1.4,0.7-1.4,1.4C177.7,18.75,181.8,18.45,181.4,21.85z
        M174.2,16.05c0,0.7-0.3,1-1,1s-0.7-0.7-1.4-0.7c-0.3,0-1,0.3-1,1.4v5.5c0,0.3,0.3,0.3,1.4,0.3h0.3v0.7c-1,0-1.7,0-2.7,0
        c-0.7,0-1.7,0-2.4,0v-0.3h0.3c0.7,0,1-0.3,1-0.7v-5.8c0-0.7-0.3-1-0.7-1s-0.3,0-0.7,0v-0.4c1,0,2.4-0.7,3.4-1h0.3v1.4
        c0.3-0.7,1.4-1.7,2.4-1.7C174.2,14.65,174.6,15.05,174.2,16.05z M140.4,16.35c-0.3,0.6-0.9,0.7-1.5,0.7c-0.7,0-0.7-0.7-1.4-0.7
        c-0.3,0-1,0.3-1,1.4v5.5c0,0.3,0.3,0.3,1.4,0.3h0.3v0.7c-1,0-1.7,0-2.7,0c-0.7,0-1.4,0-2.4,0v-0.3h0.3c0.7,0,1-0.3,1-0.7v-5.8
        c0-0.7-0.3-1-0.7-1c-0.3,0-0.3,0-0.7,0v-0.4c1,0,2.4-0.7,3.4-1h0.3v1.4c0.3-0.7,1.4-1.7,2.4-1.7
        C139.9,14.65,140.7,15.05,140.4,16.35z M123.8,13.95c0,2.4-1.7,3.8-4.1,4.1c-0.3,0-1,0-1,0h-1v-0.6h1c1.7,0,2.4-1.4,2.4-3.4
        c0-2.1-0.7-3.4-2.7-3.4h-1.7v11.3c0,1.7,1,1.7,2.1,1.7h0.2v0.7c-1,0-2.1,0-3.1,0s-2.4,0-3.4,0v-0.3h0.3c0.7,0,1.4,0,1.4-1.7v-10.1
        c0-1.4-0.3-1.7-1.4-1.7h-0.3v-0.7c0.7,0,1.7,0,2.7,0c0.3,0,3.1,0,3.1,0c0.3,0,0.3,0,0.7,0C121.7,9.85,123.8,10.95,123.8,13.95z
        M131.6,23.25c-0.7,0-0.7-0.7-0.7-1.4v-4.4c0-1.7-1-2.7-2.7-2.7c-0.3,0-0.7,0-1.4,0.3c-0.7,0.3-1.7,0.7-2.4,1c-0.7,0.3-1,1-1,1.7
        c0,0.3,0,0.3,0.3,0.3s1.4-0.3,1.4-1c0-1,0.3-1.4,1.7-1.4c1,0,1.7,0.3,1.7,1.7v1.4l-2.4,1c-1.4,0.3-2.7,1-2.7,2.7
        c0,1.4,1,2.1,2.4,2.1s2.4-0.7,3.1-1.7c0,1,0.7,1.7,1.7,1.7s1.7-0.7,2.1-1.4l-0.3-0.3C132.3,22.95,132,23.25,131.6,23.25z
        M128.9,22.25c0,0.3-0.7,1-1.7,1c-1,0-1.4-0.3-1.4-1.4c0-1.7,1.7-2.1,3.1-2.1V22.25z M145,15.05h2.4v1H145v5.8c0,0.7,0.3,1,1,1
        c0.3,0,0.7,0,1,0l0.3,0.3c-0.7,1-1.7,1.7-2.7,1.7c-1.7,0-2.1-1-2.1-2.1v-6.4h-1.4v-0.3c1.4-0.7,2.4-2.1,3.4-3.1h0.5V15.05z
        M110.7,23.55h0.3v0.7c-1,0-1.7,0-2.4,0s-1.7,0-2.4,0v-0.3h0.3c0.3,0,1,0,1-0.7v-5.1c0-1.4-0.7-1.7-1.7-1.7c-0.7,0-1.7,0.3-2.1,0.7
        v6.2c0,0.3,0.7,0.3,1,0.3h0.3v0.7c-0.7,0-1.7,0-2.4,0c-0.7,0-1.7,0-2.4,0v-1c0.7,0,1,0,1-0.7v-11.7c0-0.7-0.3-0.7-0.7-1l-0.7-0.3
        v-0.3c1,0,2.4-0.7,3.4-1l0.3,0.3v7.5c1.1-0.4,2.1-1.5,3.5-1.5s2.4,0.7,2.4,2.7v5.5C109.4,23.55,109.7,23.55,110.7,23.55z
        M158.7,23.55h0.3v0.7c-0.7,0-1.7,0-2.4,0c-0.7,0-1.7,0-2.4,0v-0.3h0.3c0.3,0,1,0,1-0.7v-5.1c0-1.4-0.7-1.7-1.7-1.7
        c-0.7,0-1.7,0.3-2.1,0.7v6.2c0,0.3,0.7,0.3,1,0.3h0.3v0.7c-0.7,0-1.7,0-2.4,0c-0.7,0-1.7,0-2.4,0v-0.7c0.7,0,1,0,1-0.7v-5.9
        c0-0.3,0-0.7-0.3-0.7c-0.3,0-0.3-0.3-0.7-0.3v-0.3c0.3-0.3,1-0.3,1.7-0.7c0.3-0.3,1-0.3,1.4-0.7l0.3,0.3v1.4c1-0.3,2-1.4,3.4-1.4
        s2.4,0.7,2.4,2.7v5.5C157.4,23.55,158,23.55,158.7,23.55z M163.8,22.85c-2.1,0-3.1-2.1-3.1-4.1h5.5l0.3-0.3c0-2.1-1-3.8-3.1-3.8
        c-2.7,0-4.5,2.7-4.5,5.1s1.4,4.8,4.1,4.8c1.7,0,3.1-1,3.8-2.4l-0.3-0.3C165.5,22.45,164.8,22.85,163.8,22.85z M162.7,15.65
        c0.7,0,1.4,1,1.4,1.7c0,0.7,0,0.7-1,0.7h-2.4C160.7,16.65,161.4,15.65,162.7,15.65z M24.169,18.017
        c0.126-0.442,0.273-0.82,0.273-1.031c0-0.147-0.063-0.294-0.294-0.294c-0.378,0-1.346,0.946-1.619,1.198l-0.399-0.42
        c0.82-0.904,2.481-3.007,3.806-3.007c0.673,0,0.988,0.378,0.988,1.051c0,0.82-1.051,3.28-1.304,4.163l0.042,0.042
        c0.967-1.577,3.995-5.257,5.74-5.257c0.673,0,0.988,0.378,0.988,1.051c0,0.82-1.051,3.28-1.304,4.163l0.042,0.042
        c0.967-1.577,3.995-5.257,5.95-5.257c0.694,0,1.157,0.189,1.157,1.114c0,1.073-2.166,5.93-2.166,6.792
        c0,0.147,0.084,0.273,0.252,0.273c0.483,0,1.556-1.198,1.829-1.472l0.4,0.462c-1.535,1.872-2.67,2.902-4.016,2.902
        c-0.568,0-0.946-0.399-0.946-0.988c0-1.009,1.913-5.782,1.913-6.329c0-0.315-0.168-0.525-0.441-0.525
        c-1.072,0-3.154,2.754-4.016,4.562c-1.198,2.502-1.03,3.07-1.829,3.07c-1.157,0-1.43-0.126-1.43-0.42
        c0-0.252,0.252-0.967,0.336-1.198l1.598-4.605c0.084-0.252,0.189-0.715,0.189-0.988s-0.063-0.42-0.378-0.42
        c-1.115,0-3.385,3.343-3.995,4.437c-1.262,2.313-1.072,3.196-1.83,3.196c-1.051,0-1.451-0.042-1.451-0.315
        c0-0.189,0.126-0.525,0.294-1.072L24.169,18.017z M39.818,18.311l-0.504-0.294c0-1.493,0.483-3.554,2.418-3.554
        c2.166,0,2.796,2.733,3.217,5.214l0.546,3.175h0.042c0.652-1.03,2.208-3.364,2.208-4.71c0-0.925-0.505-1.451-0.505-2.208
        c0-0.841,0.4-1.472,1.283-1.472c0.841,0,1.199,0.504,1.199,1.409c0,2.229-2.902,7.359-7.675,12.132
        c-0.757,0.757-1.304,1.009-2.187,1.009c-0.673,0-1.177-0.21-1.177-1.009c0-0.904,0.483-1.093,0.778-1.093
        c0.589,0,0.862,0.21,1.619,0.21c1.325,0,2.082-1.367,2.607-1.977c-0.084-1.03-0.294-2.797-0.399-3.364
        c-0.715-3.806-1.493-5.425-2.502-5.425c-0.462,0-0.715,0.315-0.715,1.03c0,0.189,0.042,0.546,0.063,0.799L39.818,18.311z
        M188.3,11.9c-0.6-0.6-1.4-0.9-2.2-0.9c-0.9,0-1.6,0.3-2.2,0.9s-0.9,1.3-0.9,2.2c0,0.9,0.3,1.6,0.9,2.2c0.6,0.6,1.4,0.9,2.2,0.9
        c0.9,0,1.6-0.3,2.2-0.9c0.6-0.6,0.9-1.4,0.9-2.2C189.2,13.2,188.9,12.5,188.3,11.9z M187.9,15.8c-0.5,0.5-1,0.7-1.7,0.7
        s-1.2-0.2-1.7-0.7s-0.7-1-0.7-1.7s0.2-1.2,0.7-1.7s1-0.7,1.7-0.7s1.2,0.2,1.7,0.7s0.7,1,0.7,1.7C188.6,14.7,188.3,15.3,187.9,15.8z
        M187.2,13.9c0.1-0.2,0.2-0.4,0.2-0.6c0-0.2,0-0.3-0.1-0.4c-0.1-0.1-0.2-0.2-0.3-0.3c-0.1,0-0.3-0.1-0.4-0.1c-0.1,0-0.3,0-0.5,0
        h-1.2v3h0.8v-1.1h0.3l0.9,1.1h1l-1.2-1.3C186.9,14.2,187.1,14.1,187.2,13.9z M186.6,13.4c0,0.1,0,0.2,0,0.3c0,0,0,0.1-0.1,0.1
        c0,0.1-0.1,0.1-0.2,0.1c-0.1,0-0.2,0-0.3,0h-0.2V13h0.2c0.1,0,0.2,0,0.3,0c0.1,0,0.1,0.1,0.2,0.1c0,0,0.1,0,0.1,0.1
        C186.6,13.3,186.6,13.3,186.6,13.4z"/>
</svg>